<svg xmlns="http://www.w3.org/2000/svg" xmlns:xlink="http://www.w3.org/1999/xlink" width="500" zoomAndPan="magnify" viewBox="0 0 375 374.999991" height="500" preserveAspectRatio="xMidYMid meet" version="1.0"><defs><clipPath id="fe02d3ac59"><rect x="0" width="375" y="0" height="375"/></clipPath></defs><g transform="matrix(1, 0, 0, 1, 0, 0)"><g clip-path="url(#fe02d3ac59)"><path fill="#002d69" d="M 14.34375 185.101562 C 32.945312 173.949219 60.019531 168.777344 64.625 167.953125 C 69.9375 161.179688 119.171875 99.300781 146.539062 99.300781 L 375 99.300781 L 375 247.859375 L 323.445312 247.859375 L 323.445312 246.210938 C 323.445312 227.371094 308.121094 212.042969 289.296875 212.042969 C 270.464844 212.042969 255.144531 227.371094 255.144531 246.210938 L 255.144531 247.863281 L 104.078125 247.863281 L 104.078125 246.210938 C 104.078125 227.371094 88.761719 212.042969 69.925781 212.042969 C 51.078125 212.042969 35.757812 227.371094 35.757812 246.210938 L 35.757812 247.863281 L 1.863281 247.863281 L 1.640625 246.492188 C 1.300781 244.480469 -6.292969 197.46875 14.34375 185.101562 Z M 200.796875 165.019531 L 200.796875 108.972656 L 143.765625 108.972656 C 123.421875 108.972656 82.902344 160.164062 81.183594 162.335938 L 79.074219 165.015625 L 200.796875 165.015625 Z M 13.054688 205.304688 L 32.878906 205.304688 L 32.878906 190.984375 L 13.054688 196.960938 Z M 13.054688 205.304688 " fill-opacity="1" fill-rule="nonzero"/><path fill="#002d69" d="M 69.066406 216.707031 C 85.328125 216.707031 98.578125 229.941406 98.578125 246.199219 C 98.578125 262.472656 85.335938 275.703125 69.066406 275.703125 C 52.800781 275.703125 39.570312 262.472656 39.570312 246.199219 C 39.582031 229.941406 52.800781 216.707031 69.066406 216.707031 Z M 69.066406 260.0625 C 76.714844 260.0625 82.929688 253.839844 82.929688 246.199219 C 82.929688 238.558594 76.714844 232.351562 69.066406 232.351562 C 61.425781 232.351562 55.203125 238.574219 55.203125 246.199219 C 55.203125 253.839844 61.425781 260.0625 69.066406 260.0625 Z M 69.066406 260.0625 " fill-opacity="1" fill-rule="nonzero"/><path fill="#002d69" d="M 288.265625 217.636719 C 304.011719 217.636719 316.835938 230.4375 316.835938 246.195312 C 316.835938 261.949219 304.019531 274.777344 288.265625 274.777344 C 272.511719 274.777344 259.695312 261.949219 259.695312 246.195312 C 259.695312 230.4375 272.511719 217.636719 288.265625 217.636719 Z M 288.265625 259.660156 C 295.675781 259.660156 301.734375 253.621094 301.734375 246.195312 C 301.734375 238.78125 295.675781 232.742188 288.265625 232.742188 C 280.847656 232.742188 274.804688 238.773438 274.804688 246.195312 C 274.804688 253.621094 280.839844 259.660156 288.265625 259.660156 Z M 288.265625 259.660156 " fill-opacity="1" fill-rule="nonzero"/><path fill="#002d69" d="M 104.664062 257.96875 L 255.421875 257.96875 L 255.421875 244.195312 L 104.664062 244.195312 Z M 252.109375 254.648438 L 107.984375 254.648438 L 107.984375 247.515625 L 252.109375 247.515625 Z M 252.109375 254.648438 " fill-opacity="1" fill-rule="nonzero"/></g></g></svg>