<svg xmlns="http://www.w3.org/2000/svg" xmlns:xlink="http://www.w3.org/1999/xlink" width="500" zoomAndPan="magnify" viewBox="0 0 375 374.999991" height="500" preserveAspectRatio="xMidYMid meet" version="1.0"><defs><clipPath id="c43dbfe846"><path d="M 0 86.589844 L 375 86.589844 L 375 288.339844 L 0 288.339844 Z M 0 86.589844 " clip-rule="nonzero"/></clipPath><clipPath id="115ce2a931"><rect x="0" width="375" y="0" height="203"/></clipPath></defs><g clip-path="url(#c43dbfe846)"><g transform="matrix(1, 0, 0, 1, 0, 86)"><g clip-path="url(#115ce2a931)"><path fill="#D4AF37" d="M 20.289062 130.304688 L 20.289062 87.046875 C 20.289062 79.089844 26.746094 72.644531 34.703125 72.644531 L 106.777344 72.644531 L 148.621094 9.835938 C 151.304688 5.828125 155.296875 3.472656 160.113281 3.472656 L 334.53125 3.472656 C 342.488281 3.472656 348.945312 9.878906 348.945312 17.839844 L 348.945312 43.824219 L 360.480469 43.824219 C 366.851562 43.824219 372.011719 48.953125 372.011719 55.328125 L 372.011719 113 C 372.011719 119.375 366.851562 124.523438 360.480469 124.523438 L 348.945312 124.523438 L 348.945312 153.34375 L 325.222656 153.34375 C 321.1875 130.347656 301.148438 112.898438 276.988281 112.898438 C 252.84375 112.898438 232.722656 130.347656 228.671875 153.34375 L 123.503906 153.34375 C 119.46875 130.347656 99.339844 112.898438 75.179688 112.898438 C 51.035156 112.898438 31.035156 130.347656 26.984375 153.34375 L 14.519531 153.34375 C 8.148438 153.34375 2.988281 148.210938 2.988281 141.835938 L 2.988281 130.304688 Z M 250.925781 72.644531 L 331.648438 72.644531 L 331.648438 20.722656 L 250.925781 20.722656 Z M 233.628906 72.644531 L 233.628906 20.722656 L 164.4375 20.722656 L 129.839844 72.644531 Z M 276.871094 199.457031 C 297.539062 199.457031 314.472656 182.589844 314.472656 161.917969 C 314.472656 141.246094 297.65625 124.429688 276.992188 124.429688 C 256.328125 124.429688 239.511719 141.246094 239.511719 161.917969 C 239.511719 182.589844 256.207031 199.457031 276.871094 199.457031 Z M 276.992188 144.617188 C 286.53125 144.617188 294.289062 152.378906 294.289062 161.917969 C 294.289062 171.457031 286.53125 179.21875 276.992188 179.21875 C 267.453125 179.21875 259.695312 171.457031 259.695312 161.917969 C 259.695312 152.378906 267.453125 144.617188 276.992188 144.617188 Z M 75.0625 199.457031 C 95.730469 199.457031 112.664062 182.589844 112.664062 161.917969 C 112.664062 141.246094 95.851562 124.429688 75.183594 124.429688 C 54.515625 124.429688 37.703125 141.246094 37.703125 161.917969 C 37.703125 182.589844 54.398438 199.457031 75.0625 199.457031 Z M 75.183594 144.617188 C 84.722656 144.617188 92.480469 152.378906 92.480469 161.917969 C 92.480469 171.457031 84.722656 179.21875 75.183594 179.21875 C 65.644531 179.21875 57.886719 171.457031 57.886719 161.917969 C 57.886719 152.378906 65.644531 144.617188 75.183594 144.617188 Z M 75.183594 144.617188 " fill-opacity="1" fill-rule="nonzero"/></g></g></g></svg>